<?xml version="1.0" encoding="UTF-8"?>
<svg xmlns="http://www.w3.org/2000/svg" version="1.1" viewBox="0 0 512 512">
  <defs>
    <style>
      .cls-1 {
        fill: #fff;
      }

      .cls-2 {
        fill: #8cc7ff;
        stroke: #231f20;
        stroke-miterlimit: 10;
      }
    </style>
  </defs>
  <!-- Generator: Adobe Illustrator 28.7.3, SVG Export Plug-In . SVG Version: 1.2.0 Build 164)  -->
  <g>
    <g id="Layer_1">
      <ellipse class="cls-2" cx="256" cy="256" rx="221.5" ry="127"/>
      <g>
        <g>
          <path d="M179.7,294c-4.7,2.4-14.1,4.7-26.2,4.7-27.9,0-49-17.6-49-50.1s21-52,51.8-52,20.1,2.6,23.5,4.4l-3.1,10.4c-4.9-2.4-11.8-4.1-20-4.1-23.2,0-38.7,14.8-38.7,40.9s14,39.8,38.1,39.8,15.7-1.6,20.9-4.1l2.6,10.1Z"/>
          <path d="M248.2,212.6h-36.5l-3.7,24.6c2.2-.3,4.3-.6,7.8-.6,7.4,0,14.7,1.6,20.6,5.1,7.5,4.3,13.7,12.5,13.7,24.6,0,18.7-14.8,32.6-35.6,32.6s-19.3-2.9-23.8-5.9l3.2-9.8c4,2.4,11.8,5.3,20.4,5.3s22.6-7.9,22.6-20.7c-.1-12.3-8.4-21.2-27.5-21.2s-9.7.6-13.2,1l6.2-45.9h45.7v10.9Z"/>
          <path d="M269.4,281.7c5.7,3.5,14.1,6.5,22.9,6.5,13.1,0,20.7-6.9,20.7-16.9s-5.3-14.6-18.7-19.7c-16.2-5.7-26.2-14.1-26.2-28.1s12.8-26.9,32-26.9,17.5,2.4,21.9,4.9l-3.5,10.4c-3.2-1.8-9.8-4.7-18.8-4.7-13.5,0-18.7,8.1-18.7,14.8s6,13.8,19.7,19.1c16.8,6.5,25.3,14.6,25.3,29.1s-11.3,28.5-34.7,28.5-20-2.8-25.3-6.3l3.2-10.7Z"/>
          <path d="M379.1,297.2v-26h-44.4v-8.5l42.6-61h14v59.4h13.4v10.1h-13.4v26h-12.2ZM379.1,261.1v-31.9c0-5,.1-10,.4-15h-.4c-2.9,5.6-5.3,9.7-7.9,14.1l-23.4,32.5v.3h31.3Z"/>
        </g>
        <g>
          <path class="cls-1" d="M179.7,294c-4.7,2.4-14.1,4.7-26.2,4.7-27.9,0-49-17.6-49-50.1s21-52,51.8-52,20.1,2.6,23.5,4.4l-3.1,10.4c-4.9-2.4-11.8-4.1-20-4.1-23.2,0-38.7,14.8-38.7,40.9s14,39.8,38.1,39.8,15.7-1.6,20.9-4.1l2.6,10.1Z"/>
          <path class="cls-1" d="M248.2,212.6h-36.5l-3.7,24.6c2.2-.3,4.3-.6,7.8-.6,7.4,0,14.7,1.6,20.6,5.1,7.5,4.3,13.7,12.5,13.7,24.6,0,18.7-14.8,32.6-35.6,32.6s-19.3-2.9-23.8-5.9l3.2-9.8c4,2.4,11.8,5.3,20.4,5.3s22.6-7.9,22.6-20.7c-.1-12.3-8.4-21.2-27.5-21.2s-9.7.6-13.2,1l6.2-45.9h45.7v10.9Z"/>
          <path class="cls-1" d="M269.4,281.7c5.7,3.5,14.1,6.5,22.9,6.5,13.1,0,20.7-6.9,20.7-16.9s-5.3-14.6-18.7-19.7c-16.2-5.7-26.2-14.1-26.2-28.1s12.8-26.9,32-26.9,17.5,2.4,21.9,4.9l-3.5,10.4c-3.2-1.8-9.8-4.7-18.8-4.7-13.5,0-18.7,8.1-18.7,14.8s6,13.8,19.7,19.1c16.8,6.5,25.3,14.6,25.3,29.1s-11.3,28.5-34.7,28.5-20-2.8-25.3-6.3l3.2-10.7Z"/>
          <path class="cls-1" d="M379.1,297.2v-26h-44.4v-8.5l42.6-61h14v59.4h13.4v10.1h-13.4v26h-12.2ZM379.1,261.1v-31.9c0-5,.1-10,.4-15h-.4c-2.9,5.6-5.3,9.7-7.9,14.1l-23.4,32.5v.3h31.3Z"/>
        </g>
      </g>
    </g>
  </g>
</svg>